<?xml version="1.0" encoding="UTF-8"?>
<svg xmlns="http://www.w3.org/2000/svg" width="1254" height="1254" viewBox="0 0 1254 1254" role="img" aria-labelledby="title desc">
  <title id="title">QuantZhai icon logo</title>
  <desc id="desc">QuantZhai icon-only fortress Q emblem with cyan accents.</desc>
  <g fill-rule="evenodd" clip-rule="evenodd">
    <path d="M 382 248 L 378 254 L 378 314 L 357 332 L 328 362 L 304 392 L 285 422 L 265 462 L 251 500 L 242 536 L 238 566 L 328 634 L 330 639 L 330 659 L 388 703 L 390 704 L 415 704 L 405 671 L 400 645 L 399 628 L 398 627 L 398 608 L 397 607 L 398 606 L 398 582 L 399 581 L 401 558 L 408 530 L 419 501 L 436 470 L 445 457 L 461 438 L 489 412 L 512 396 L 544 380 L 575 370 L 603 365 L 639 364 L 640 365 L 652 365 L 676 369 L 706 378 L 741 395 L 763 410 L 785 429 L 809 456 L 822 475 L 833 495 L 842 516 L 852 551 L 852 556 L 855 568 L 856 590 L 857 591 L 857 619 L 856 620 L 854 649 L 846 685 L 837 711 L 820 744 L 820 746 L 883 802 L 931 843 L 934 844 L 945 830 L 967 795 L 986 756 L 999 720 L 1009 680 L 1013 654 L 1014 637 L 1015 636 L 1016 589 L 1015 588 L 1014 564 L 1013 563 L 1013 556 L 1009 530 L 1001 499 L 988 463 L 971 428 L 956 403 L 930 368 L 895 331 L 875 314 L 875 254 L 874 251 L 867 246 L 834 233 L 801 223 L 766 215 L 763 219 L 763 271 L 762 272 L 720 260 L 701 257 L 700 256 L 700 208 L 698 205 L 693 203 L 661 200 L 657 198 L 657 151 L 655 147 L 650 145 L 603 145 L 597 149 L 596 151 L 596 198 L 590 200 L 561 203 L 555 207 L 554 209 L 554 256 L 553 257 L 521 263 L 517 265 L 502 268 L 492 272 L 490 270 L 490 217 L 488 215 L 466 219 L 433 228 L 410 236 Z M 211 576 L 211 715 L 213 720 L 216 724 L 348 822 L 348 767 L 289 722 L 280 712 L 267 688 L 262 688 L 261 689 L 253 688 L 246 684 L 241 679 L 238 674 L 236 666 L 237 659 L 240 652 L 248 644 L 256 641 L 264 641 L 274 645 L 279 650 L 284 660 L 284 670 L 280 680 L 295 706 L 359 754 L 364 759 L 364 834 L 383 849 L 390 853 L 428 881 L 431 885 L 433 890 L 433 949 L 453 963 L 477 977 L 498 987 L 525 997 L 528 997 L 546 1003 L 550 1003 L 555 1005 L 570 1007 L 571 1008 L 596 1010 L 597 1011 L 633 1012 L 634 1011 L 662 1010 L 663 1009 L 682 1007 L 709 1001 L 729 994 L 732 994 L 765 981 L 766 980 L 766 926 L 770 920 L 774 918 L 779 918 L 787 923 L 817 948 L 823 955 L 824 959 L 824 981 L 823 982 L 824 983 L 823 985 L 823 1013 L 824 1014 L 824 1020 L 823 1021 L 823 1027 L 826 1035 L 831 1040 L 839 1043 L 842 1042 L 844 1043 L 845 1042 L 861 1042 L 862 1043 L 867 1043 L 868 1042 L 876 1042 L 877 1043 L 883 1043 L 884 1042 L 926 1042 L 927 1043 L 928 1042 L 999 1042 L 1000 1043 L 1005 1043 L 1006 1042 L 1008 1043 L 1010 1042 L 1011 1043 L 1026 1043 L 1027 1042 L 1031 1042 L 1032 1043 L 1043 1043 L 1048 1040 L 1049 1038 L 1049 1005 L 1047 1000 L 940 891 L 940 874 L 938 869 L 872 813 L 804 752 L 791 747 L 684 747 L 679 750 L 677 754 L 677 856 L 676 857 L 661 859 L 660 860 L 651 860 L 650 861 L 613 861 L 612 860 L 597 859 L 571 853 L 551 846 L 530 836 L 499 816 L 480 800 L 460 779 L 437 748 L 423 721 L 385 721 L 315 667 L 313 662 L 313 643 L 311 640 L 241 589 L 221 573 L 217 572 L 214 573 Z M 213 749 L 211 752 L 211 860 L 212 861 L 212 863 L 213 865 L 220 872 L 221 872 L 224 875 L 225 875 L 228 878 L 229 878 L 233 882 L 234 882 L 237 885 L 238 885 L 241 888 L 242 888 L 245 891 L 246 891 L 249 894 L 250 894 L 253 897 L 254 897 L 257 900 L 258 900 L 261 903 L 262 903 L 265 906 L 266 906 L 269 909 L 270 909 L 273 912 L 274 912 L 277 915 L 278 915 L 281 918 L 282 918 L 285 921 L 286 921 L 289 924 L 290 924 L 293 927 L 294 927 L 298 931 L 302 933 L 305 936 L 306 936 L 309 939 L 310 939 L 313 942 L 314 942 L 317 945 L 318 945 L 321 948 L 322 948 L 325 951 L 326 951 L 330 955 L 334 957 L 337 960 L 338 960 L 341 963 L 342 963 L 345 966 L 346 966 L 349 969 L 350 969 L 361 978 L 363 978 L 364 979 L 370 979 L 371 978 L 373 978 L 375 976 L 392 968 L 394 966 L 412 957 L 415 953 L 415 895 L 414 893 L 411 890 L 410 890 L 403 884 L 399 882 L 396 879 L 395 879 L 392 876 L 391 876 L 380 867 L 376 865 L 373 862 L 372 862 L 361 853 L 357 851 L 354 848 L 353 848 L 350 845 L 349 845 L 346 842 L 345 842 L 342 839 L 341 839 L 338 836 L 337 836 L 334 833 L 333 833 L 330 830 L 329 830 L 318 821 L 314 819 L 310 815 L 309 815 L 298 806 L 294 804 L 290 800 L 289 800 L 286 797 L 282 795 L 278 791 L 277 791 L 274 788 L 273 788 L 270 785 L 269 785 L 258 776 L 254 774 L 251 771 L 250 771 L 247 768 L 246 768 L 235 759 L 231 757 L 222 749 L 220 748 L 215 748 Z M 470 580 L 470 584 L 471 585 L 471 587 L 472 589 L 476 593 L 478 593 L 481 595 L 483 595 L 484 596 L 486 596 L 487 597 L 489 597 L 493 599 L 496 599 L 500 601 L 500 611 L 501 612 L 501 615 L 502 616 L 502 618 L 504 622 L 506 624 L 506 625 L 514 633 L 515 633 L 517 635 L 521 637 L 524 637 L 525 638 L 530 638 L 531 639 L 535 639 L 536 638 L 541 638 L 542 637 L 544 637 L 550 634 L 552 632 L 553 632 L 560 625 L 564 617 L 564 614 L 566 612 L 568 613 L 580 613 L 586 609 L 589 603 L 589 592 L 588 591 L 578 591 L 577 590 L 569 590 L 568 589 L 561 589 L 560 588 L 554 588 L 553 587 L 547 587 L 546 586 L 542 586 L 541 585 L 537 585 L 536 584 L 527 583 L 526 582 L 523 582 L 522 581 L 519 581 L 518 580 L 515 580 L 514 579 L 510 579 L 509 578 L 507 578 L 503 576 L 500 576 L 499 575 L 497 575 L 496 574 L 494 574 L 493 573 L 491 573 L 490 572 L 488 572 L 487 571 L 482 570 L 476 567 L 473 571 L 473 573 L 471 576 L 471 579 Z M 784 580 L 783 579 L 783 576 L 779 568 L 775 568 L 767 572 L 765 572 L 764 573 L 762 573 L 758 575 L 755 575 L 754 576 L 752 576 L 748 578 L 745 578 L 744 579 L 741 579 L 740 580 L 737 580 L 736 581 L 732 581 L 731 582 L 728 582 L 727 583 L 723 583 L 722 584 L 719 584 L 718 585 L 714 585 L 713 586 L 708 586 L 707 587 L 702 587 L 701 588 L 695 588 L 694 589 L 687 589 L 686 590 L 677 590 L 676 591 L 667 591 L 665 594 L 665 597 L 666 598 L 666 604 L 668 608 L 672 612 L 674 612 L 675 613 L 685 613 L 686 612 L 688 612 L 690 614 L 691 619 L 694 625 L 702 633 L 710 637 L 712 637 L 713 638 L 717 638 L 718 639 L 726 639 L 727 638 L 730 638 L 731 637 L 733 637 L 739 634 L 742 631 L 743 631 L 749 624 L 752 618 L 753 613 L 754 612 L 754 601 L 758 599 L 761 599 L 762 598 L 764 598 L 765 597 L 767 597 L 768 596 L 773 595 L 779 592 L 782 589 L 784 585 Z M 242 821 L 244 820 L 247 817 L 253 814 L 257 814 L 258 813 L 263 813 L 264 814 L 267 814 L 275 818 L 281 825 L 282 827 L 282 829 L 283 830 L 283 832 L 284 833 L 284 841 L 283 842 L 283 845 L 281 848 L 284 851 L 285 851 L 288 854 L 289 854 L 292 857 L 293 857 L 296 860 L 297 860 L 300 863 L 301 863 L 305 867 L 306 867 L 309 870 L 310 870 L 313 873 L 314 873 L 317 876 L 318 876 L 322 880 L 323 880 L 326 883 L 327 883 L 330 886 L 331 886 L 334 889 L 335 889 L 339 893 L 340 893 L 343 896 L 344 896 L 347 899 L 348 899 L 351 902 L 352 902 L 355 905 L 356 905 L 359 908 L 360 908 L 363 911 L 364 911 L 368 915 L 369 915 L 372 918 L 373 918 L 376 921 L 377 921 L 380 926 L 380 929 L 378 933 L 374 936 L 369 936 L 367 934 L 366 934 L 363 931 L 362 931 L 359 928 L 358 928 L 355 925 L 354 925 L 350 921 L 346 919 L 338 912 L 337 912 L 334 909 L 333 909 L 330 906 L 329 906 L 326 903 L 325 903 L 322 900 L 321 900 L 318 897 L 317 897 L 313 893 L 312 893 L 309 890 L 308 890 L 305 887 L 304 887 L 300 883 L 299 883 L 291 876 L 290 876 L 287 873 L 286 873 L 282 869 L 281 869 L 278 866 L 277 866 L 272 861 L 270 860 L 267 860 L 266 861 L 255 861 L 254 860 L 249 859 L 247 857 L 246 857 L 241 852 L 241 851 L 239 849 L 238 847 L 238 845 L 237 844 L 237 841 L 236 840 L 236 833 L 237 832 L 238 827 L 239 825 L 242 822 Z M 881 929 L 883 928 L 895 928 L 896 929 L 902 929 L 904 931 L 904 952 L 902 954 L 882 954 L 879 951 L 879 932 Z M 882 979 L 902 979 L 904 981 L 904 1002 L 902 1004 L 882 1004 L 879 1001 L 879 982 Z M 882 879 L 902 879 L 904 881 L 904 902 L 902 904 L 882 904 L 879 901 L 879 882 Z M 617 163 L 636 163 L 639 166 L 639 184 L 637 187 L 616 187 L 614 184 L 614 166 Z M 257 829 L 255 830 L 252 834 L 252 840 L 253 842 L 256 845 L 258 846 L 262 846 L 267 843 L 269 837 L 268 836 L 268 834 L 267 832 L 265 830 L 263 829 Z M 260 656 L 259 657 L 256 657 L 253 660 L 252 662 L 252 668 L 255 672 L 257 673 L 259 673 L 260 674 L 261 673 L 263 673 L 265 672 L 268 669 L 268 667 L 269 666 L 268 661 L 264 657 L 261 657 Z" fill="#10191F"/>
    <path d="M 248 645 L 241 652 L 241 653 L 239 656 L 239 658 L 238 659 L 238 662 L 237 663 L 237 666 L 238 667 L 238 671 L 239 672 L 239 674 L 240 675 L 240 676 L 242 678 L 242 679 L 246 683 L 247 683 L 249 685 L 250 685 L 253 687 L 256 687 L 257 688 L 261 688 L 262 687 L 267 687 L 268 688 L 268 689 L 269 690 L 270 693 L 272 695 L 273 698 L 275 700 L 275 701 L 276 702 L 276 703 L 277 704 L 278 707 L 280 709 L 281 712 L 283 714 L 283 715 L 289 721 L 290 721 L 293 724 L 294 724 L 297 727 L 298 727 L 301 730 L 302 730 L 311 738 L 312 738 L 314 740 L 315 740 L 318 743 L 319 743 L 323 747 L 324 747 L 328 751 L 329 751 L 332 754 L 333 754 L 336 757 L 337 757 L 340 760 L 341 760 L 344 763 L 345 763 L 349 767 L 349 822 L 348 823 L 349 823 L 353 827 L 354 827 L 357 830 L 358 830 L 361 833 L 362 833 L 364 835 L 363 834 L 363 759 L 359 755 L 358 755 L 355 752 L 354 752 L 351 749 L 350 749 L 347 746 L 346 746 L 342 742 L 341 742 L 338 739 L 337 739 L 335 737 L 334 737 L 331 734 L 330 734 L 326 730 L 325 730 L 318 724 L 317 724 L 315 722 L 314 722 L 311 719 L 310 719 L 306 715 L 305 715 L 301 711 L 300 711 L 298 709 L 297 709 L 294 706 L 294 705 L 292 703 L 292 702 L 291 701 L 290 698 L 288 696 L 288 695 L 287 694 L 286 691 L 284 689 L 283 686 L 281 684 L 281 683 L 279 680 L 279 678 L 280 677 L 280 676 L 282 673 L 282 671 L 283 670 L 283 660 L 282 659 L 282 657 L 281 656 L 280 653 L 278 651 L 278 650 L 274 646 L 273 646 L 268 643 L 265 643 L 264 642 L 256 642 L 255 643 L 253 643 L 252 644 L 250 644 L 249 645 Z M 243 821 L 243 822 L 240 825 L 240 826 L 239 827 L 239 829 L 238 830 L 238 832 L 237 833 L 237 840 L 238 841 L 238 844 L 239 845 L 239 847 L 240 848 L 240 849 L 242 851 L 242 852 L 246 856 L 247 856 L 249 858 L 251 858 L 252 859 L 254 859 L 255 860 L 266 860 L 267 859 L 270 859 L 271 860 L 272 860 L 277 865 L 278 865 L 281 868 L 282 868 L 286 872 L 287 872 L 290 875 L 291 875 L 295 879 L 296 879 L 299 882 L 300 882 L 304 886 L 305 886 L 308 889 L 309 889 L 312 892 L 313 892 L 317 896 L 318 896 L 321 899 L 322 899 L 325 902 L 326 902 L 329 905 L 330 905 L 333 908 L 334 908 L 337 911 L 338 911 L 342 915 L 343 915 L 346 918 L 347 918 L 349 920 L 350 920 L 354 924 L 355 924 L 358 927 L 359 927 L 366 933 L 367 933 L 369 935 L 374 935 L 377 933 L 377 932 L 379 929 L 379 926 L 378 925 L 377 922 L 376 922 L 373 919 L 372 919 L 369 916 L 368 916 L 364 912 L 363 912 L 360 909 L 359 909 L 356 906 L 355 906 L 352 903 L 351 903 L 348 900 L 347 900 L 344 897 L 343 897 L 340 894 L 339 894 L 335 890 L 334 890 L 331 887 L 330 887 L 327 884 L 326 884 L 323 881 L 322 881 L 318 877 L 317 877 L 314 874 L 313 874 L 310 871 L 309 871 L 306 868 L 305 868 L 301 864 L 300 864 L 297 861 L 296 861 L 293 858 L 292 858 L 289 855 L 288 855 L 285 852 L 284 852 L 280 848 L 282 845 L 282 842 L 283 841 L 283 833 L 282 832 L 282 830 L 281 829 L 281 827 L 280 826 L 280 825 L 278 823 L 278 822 L 275 819 L 274 819 L 273 818 L 272 818 L 270 816 L 268 816 L 267 815 L 264 815 L 263 814 L 258 814 L 257 815 L 253 815 L 252 816 L 251 816 L 250 817 L 247 818 L 244 821 Z M 881 930 L 881 931 L 880 932 L 880 951 L 882 953 L 902 953 L 903 952 L 903 931 L 902 930 L 896 930 L 895 929 L 883 929 L 882 930 Z M 882 980 L 880 982 L 880 1001 L 882 1003 L 902 1003 L 903 1002 L 903 981 L 902 980 Z M 882 880 L 880 882 L 880 901 L 882 903 L 902 903 L 903 902 L 903 881 L 902 880 Z M 617 164 L 615 166 L 615 184 L 616 185 L 616 186 L 637 186 L 637 185 L 638 184 L 638 166 L 636 164 Z M 257 828 L 263 828 L 264 829 L 265 829 L 268 832 L 268 833 L 269 834 L 269 836 L 270 837 L 268 843 L 266 845 L 265 845 L 262 847 L 258 847 L 257 846 L 256 846 L 252 842 L 252 841 L 251 840 L 251 834 L 252 833 L 252 832 L 255 829 L 256 829 Z M 260 655 L 261 656 L 264 656 L 269 661 L 269 663 L 270 664 L 270 666 L 269 667 L 269 669 L 265 673 L 264 673 L 263 674 L 261 674 L 260 675 L 259 674 L 257 674 L 256 673 L 255 673 L 251 668 L 251 662 L 252 661 L 252 660 L 256 656 L 259 656 Z" fill="#00AEEF"/>
  </g>
</svg>
