<?xml version="1.0" encoding="UTF-8"?>
<svg xmlns="http://www.w3.org/2000/svg" width="1254" height="1254" viewBox="0 0 1254 1254" role="img" aria-labelledby="title desc">
  <title id="title">QuantZhai full logo</title>
  <desc id="desc">QuantZhai full logo with fortress Q emblem, cyan accents, and wordmark.</desc>
  <g fill-rule="evenodd" clip-rule="evenodd">
    <path d="M 435 249 L 433 252 L 433 307 L 415 322 L 393 344 L 380 359 L 368 375 L 363 384 L 357 392 L 340 425 L 340 427 L 334 440 L 333 445 L 331 448 L 328 457 L 327 464 L 325 468 L 324 475 L 323 476 L 318 506 L 322 510 L 355 534 L 359 538 L 375 549 L 390 562 L 391 565 L 391 580 L 437 614 L 439 615 L 460 615 L 461 614 L 458 609 L 457 603 L 451 585 L 449 569 L 448 568 L 448 561 L 447 560 L 446 530 L 447 529 L 448 508 L 449 507 L 451 491 L 453 487 L 455 477 L 461 463 L 461 461 L 463 458 L 463 456 L 476 432 L 490 413 L 499 404 L 499 403 L 513 390 L 530 377 L 558 362 L 584 353 L 599 351 L 600 350 L 605 350 L 606 349 L 638 348 L 639 349 L 649 349 L 650 350 L 656 350 L 657 351 L 666 352 L 667 353 L 670 353 L 671 354 L 674 354 L 678 356 L 687 358 L 697 363 L 699 363 L 718 373 L 723 377 L 729 380 L 743 391 L 764 412 L 775 426 L 783 439 L 793 459 L 801 482 L 801 485 L 804 494 L 804 498 L 805 499 L 805 504 L 806 505 L 807 523 L 808 524 L 808 550 L 807 551 L 807 562 L 806 563 L 805 576 L 804 577 L 803 586 L 799 598 L 799 601 L 792 621 L 779 647 L 822 686 L 868 725 L 873 720 L 882 708 L 900 679 L 911 656 L 911 654 L 915 646 L 917 638 L 919 635 L 922 626 L 922 623 L 923 622 L 923 619 L 924 618 L 924 615 L 926 611 L 926 607 L 928 602 L 930 587 L 931 586 L 931 580 L 932 579 L 932 572 L 933 571 L 933 559 L 934 558 L 934 521 L 933 520 L 933 510 L 932 509 L 932 501 L 931 500 L 931 494 L 930 493 L 927 474 L 922 459 L 922 456 L 916 438 L 908 421 L 908 419 L 896 396 L 880 371 L 865 352 L 841 327 L 816 306 L 817 305 L 817 253 L 816 251 L 810 247 L 792 241 L 789 239 L 783 238 L 777 235 L 774 235 L 763 231 L 756 230 L 752 228 L 733 225 L 732 226 L 732 267 L 731 268 L 719 264 L 704 261 L 703 260 L 699 260 L 698 259 L 689 258 L 688 257 L 683 257 L 682 256 L 682 219 L 681 217 L 675 215 L 667 215 L 666 214 L 660 214 L 659 213 L 648 213 L 647 212 L 647 175 L 644 172 L 606 172 L 603 174 L 603 179 L 602 180 L 602 188 L 603 189 L 603 211 L 601 213 L 592 213 L 591 214 L 576 215 L 571 217 L 570 219 L 570 256 L 569 257 L 559 258 L 553 260 L 548 260 L 547 261 L 528 265 L 524 267 L 521 267 L 520 266 L 520 224 L 518 223 L 517 224 L 513 224 L 512 225 L 508 225 L 503 227 L 491 229 L 471 236 L 468 236 Z M 296 516 L 297 517 L 297 625 L 299 629 L 343 662 L 347 664 L 370 682 L 374 684 L 389 696 L 393 698 L 405 707 L 405 705 L 406 704 L 406 675 L 405 674 L 405 667 L 406 665 L 395 656 L 383 648 L 379 644 L 375 642 L 359 630 L 353 624 L 344 608 L 342 606 L 341 603 L 336 604 L 335 603 L 330 603 L 326 601 L 320 595 L 317 589 L 317 581 L 318 580 L 318 578 L 321 573 L 327 568 L 332 567 L 333 566 L 338 566 L 346 569 L 351 574 L 355 584 L 354 591 L 351 596 L 362 615 L 366 619 L 394 640 L 398 642 L 409 651 L 413 653 L 419 659 L 419 718 L 427 723 L 438 732 L 442 734 L 449 740 L 453 742 L 469 754 L 472 761 L 471 763 L 472 764 L 472 793 L 471 794 L 472 805 L 489 817 L 504 825 L 506 827 L 514 831 L 516 831 L 523 835 L 525 835 L 528 837 L 530 837 L 533 839 L 535 839 L 545 843 L 548 843 L 552 845 L 555 845 L 556 846 L 559 846 L 564 848 L 568 848 L 573 850 L 578 850 L 579 851 L 595 852 L 596 853 L 611 853 L 612 854 L 634 854 L 635 853 L 647 853 L 648 852 L 656 852 L 657 851 L 670 850 L 671 849 L 680 848 L 681 847 L 684 847 L 685 846 L 700 843 L 707 840 L 710 840 L 711 839 L 722 836 L 733 831 L 735 831 L 735 788 L 740 782 L 745 781 L 746 782 L 748 782 L 764 795 L 769 798 L 773 802 L 778 805 L 782 810 L 782 866 L 784 871 L 791 877 L 805 877 L 806 878 L 808 878 L 809 877 L 844 877 L 845 878 L 846 877 L 848 878 L 859 878 L 860 877 L 862 878 L 877 878 L 878 877 L 934 877 L 935 878 L 948 878 L 949 877 L 960 877 L 962 875 L 962 852 L 961 851 L 960 846 L 872 760 L 872 748 L 870 744 L 865 739 L 864 739 L 853 729 L 846 724 L 840 718 L 839 718 L 833 712 L 826 707 L 818 699 L 817 699 L 763 652 L 755 649 L 670 649 L 668 650 L 666 653 L 666 734 L 665 735 L 658 736 L 657 737 L 650 737 L 649 738 L 635 738 L 634 739 L 631 739 L 630 738 L 613 738 L 612 737 L 606 737 L 605 736 L 600 736 L 599 735 L 595 735 L 594 734 L 590 734 L 582 731 L 579 731 L 578 730 L 573 729 L 570 727 L 568 727 L 565 725 L 563 725 L 547 717 L 530 706 L 522 699 L 521 699 L 515 693 L 514 693 L 500 679 L 500 678 L 494 672 L 494 671 L 487 663 L 474 643 L 467 629 L 434 629 L 396 600 L 384 592 L 378 586 L 378 584 L 377 583 L 377 569 L 373 565 L 353 550 L 349 548 L 330 533 L 326 531 L 315 522 L 311 520 L 304 514 L 302 513 L 298 513 Z M 181 940 L 181 941 L 177 945 L 177 946 L 174 949 L 173 952 L 171 954 L 170 956 L 170 958 L 166 966 L 166 969 L 165 970 L 165 973 L 164 974 L 164 979 L 163 980 L 163 1000 L 164 1001 L 164 1006 L 165 1007 L 165 1010 L 166 1011 L 166 1013 L 167 1014 L 168 1019 L 172 1027 L 177 1033 L 177 1034 L 181 1038 L 181 1039 L 186 1044 L 187 1044 L 194 1050 L 201 1053 L 203 1055 L 205 1055 L 208 1057 L 210 1057 L 211 1058 L 214 1058 L 218 1060 L 222 1060 L 223 1061 L 231 1061 L 232 1062 L 244 1062 L 245 1061 L 252 1061 L 253 1060 L 257 1060 L 258 1059 L 261 1059 L 262 1058 L 267 1057 L 275 1053 L 277 1053 L 279 1055 L 279 1056 L 284 1061 L 288 1061 L 289 1062 L 299 1062 L 300 1061 L 318 1061 L 317 1059 L 311 1053 L 311 1052 L 297 1037 L 297 1035 L 300 1032 L 300 1031 L 304 1026 L 307 1020 L 307 1018 L 309 1015 L 309 1013 L 310 1012 L 310 1009 L 311 1008 L 311 1004 L 312 1003 L 312 997 L 313 996 L 313 982 L 312 981 L 312 976 L 311 975 L 311 971 L 310 970 L 310 967 L 309 966 L 309 964 L 303 952 L 301 950 L 299 946 L 296 943 L 296 942 L 287 933 L 286 933 L 283 930 L 277 927 L 275 925 L 269 922 L 267 922 L 266 921 L 264 921 L 260 919 L 257 919 L 256 918 L 253 918 L 252 917 L 243 917 L 242 916 L 234 916 L 233 917 L 224 917 L 223 918 L 219 918 L 218 919 L 215 919 L 214 920 L 209 921 L 206 923 L 204 923 L 200 926 L 195 928 L 192 931 L 191 931 L 188 934 L 187 934 Z M 298 650 L 297 652 L 297 738 L 300 742 L 300 743 L 301 743 L 304 746 L 305 746 L 308 749 L 309 749 L 320 758 L 321 758 L 327 763 L 328 763 L 336 770 L 340 772 L 343 775 L 344 775 L 355 784 L 356 784 L 362 789 L 363 789 L 367 793 L 371 795 L 374 798 L 375 798 L 382 804 L 386 806 L 389 809 L 390 809 L 393 812 L 394 812 L 397 815 L 398 815 L 401 818 L 402 818 L 405 821 L 406 821 L 409 824 L 410 824 L 415 828 L 423 828 L 434 822 L 436 822 L 454 813 L 457 810 L 457 765 L 456 763 L 452 759 L 451 759 L 445 754 L 444 754 L 441 751 L 437 749 L 433 745 L 432 745 L 430 743 L 426 741 L 415 732 L 411 730 L 408 727 L 407 727 L 396 718 L 392 716 L 381 707 L 377 705 L 366 696 L 362 694 L 359 691 L 358 691 L 347 682 L 343 680 L 332 671 L 328 669 L 317 660 L 313 658 L 306 652 L 305 652 L 303 650 Z M 441 973 L 441 975 L 442 977 L 445 980 L 445 981 L 448 984 L 448 985 L 452 989 L 453 991 L 454 991 L 460 986 L 464 984 L 466 984 L 469 982 L 473 982 L 474 981 L 483 981 L 484 982 L 487 982 L 488 983 L 490 983 L 495 987 L 498 993 L 498 999 L 497 1000 L 495 1000 L 494 999 L 489 999 L 488 998 L 464 998 L 463 999 L 459 999 L 458 1000 L 453 1001 L 449 1003 L 447 1005 L 446 1005 L 439 1012 L 436 1018 L 436 1021 L 435 1022 L 435 1035 L 436 1036 L 436 1039 L 439 1045 L 446 1052 L 447 1052 L 449 1054 L 453 1056 L 455 1056 L 456 1057 L 459 1057 L 460 1058 L 479 1058 L 480 1057 L 483 1057 L 484 1056 L 486 1056 L 492 1053 L 497 1048 L 499 1049 L 499 1056 L 524 1056 L 524 990 L 523 989 L 523 986 L 522 985 L 521 980 L 518 976 L 518 975 L 510 967 L 502 963 L 500 963 L 499 962 L 496 962 L 495 961 L 491 961 L 490 960 L 471 960 L 470 961 L 466 961 L 465 962 L 462 962 L 461 963 L 456 964 L 450 967 L 448 969 L 445 970 L 442 973 Z M 857 922 L 857 1056 L 872 1056 L 873 1057 L 875 1057 L 876 1056 L 883 1056 L 883 1001 L 884 1000 L 884 996 L 886 992 L 891 987 L 897 984 L 908 984 L 909 985 L 911 985 L 916 989 L 920 997 L 920 1056 L 947 1056 L 947 996 L 946 995 L 946 989 L 945 988 L 945 984 L 944 983 L 944 981 L 942 977 L 938 972 L 938 971 L 935 968 L 934 968 L 931 965 L 929 964 L 927 964 L 921 961 L 913 961 L 911 960 L 910 961 L 903 961 L 902 962 L 897 963 L 891 966 L 884 973 L 883 972 L 883 922 Z M 966 972 L 964 974 L 964 976 L 969 982 L 969 983 L 976 991 L 977 991 L 985 985 L 987 985 L 988 984 L 990 984 L 994 982 L 1008 982 L 1014 985 L 1018 989 L 1020 993 L 1020 996 L 1021 997 L 1021 999 L 1020 1000 L 1016 1000 L 1015 999 L 1011 999 L 1010 998 L 988 998 L 987 999 L 983 999 L 982 1000 L 977 1001 L 971 1004 L 969 1006 L 968 1006 L 962 1013 L 960 1017 L 960 1019 L 959 1020 L 959 1023 L 958 1024 L 958 1034 L 959 1035 L 959 1038 L 960 1039 L 960 1041 L 963 1045 L 963 1046 L 969 1052 L 970 1052 L 972 1054 L 974 1055 L 976 1055 L 977 1056 L 979 1056 L 980 1057 L 982 1057 L 983 1058 L 1002 1058 L 1003 1057 L 1006 1057 L 1009 1055 L 1011 1055 L 1013 1053 L 1017 1051 L 1020 1048 L 1021 1049 L 1021 1056 L 1022 1057 L 1023 1056 L 1046 1056 L 1046 993 L 1045 992 L 1045 987 L 1044 986 L 1043 981 L 1041 977 L 1038 974 L 1038 973 L 1031 967 L 1025 964 L 1023 964 L 1022 963 L 1019 963 L 1018 962 L 1015 962 L 1014 961 L 994 961 L 993 962 L 988 962 L 987 963 L 984 963 L 983 964 L 978 965 L 972 968 L 967 972 Z M 229 943 L 247 943 L 248 944 L 251 944 L 252 945 L 254 945 L 262 949 L 264 951 L 265 951 L 275 961 L 275 962 L 277 964 L 281 972 L 281 974 L 283 978 L 283 981 L 284 982 L 284 996 L 283 997 L 283 1001 L 282 1002 L 281 1007 L 277 1014 L 266 1002 L 266 1001 L 260 995 L 257 997 L 255 997 L 252 999 L 250 999 L 243 1003 L 241 1003 L 236 1006 L 236 1007 L 242 1013 L 242 1014 L 257 1030 L 257 1032 L 256 1033 L 254 1033 L 250 1035 L 247 1035 L 246 1036 L 230 1036 L 229 1035 L 225 1035 L 219 1032 L 217 1032 L 215 1030 L 212 1029 L 210 1027 L 209 1027 L 201 1019 L 201 1018 L 199 1016 L 199 1015 L 197 1013 L 195 1009 L 195 1007 L 194 1006 L 194 1004 L 192 1000 L 192 994 L 191 993 L 191 987 L 192 986 L 192 979 L 193 978 L 193 976 L 194 975 L 195 970 L 198 964 L 201 961 L 201 960 L 209 952 L 210 952 L 213 949 L 219 946 L 221 946 L 225 944 L 228 944 Z M 328 961 L 327 962 L 327 1023 L 328 1024 L 328 1029 L 329 1030 L 329 1033 L 330 1034 L 330 1036 L 334 1044 L 343 1053 L 349 1056 L 354 1057 L 355 1058 L 362 1058 L 363 1059 L 367 1059 L 368 1058 L 374 1058 L 375 1057 L 378 1057 L 386 1053 L 390 1049 L 391 1049 L 393 1046 L 394 1047 L 394 1056 L 421 1056 L 421 961 L 395 961 L 394 962 L 394 1016 L 393 1017 L 393 1021 L 390 1027 L 385 1032 L 381 1034 L 379 1034 L 378 1035 L 368 1035 L 367 1034 L 365 1034 L 363 1033 L 358 1028 L 356 1024 L 356 1021 L 355 1020 L 355 962 L 354 961 L 341 961 L 340 962 L 329 962 Z M 621 967 L 620 967 L 618 965 L 610 961 L 607 961 L 606 960 L 600 960 L 599 959 L 594 959 L 593 960 L 588 960 L 587 961 L 582 962 L 576 965 L 569 972 L 568 972 L 567 971 L 567 962 L 566 961 L 565 962 L 558 962 L 557 961 L 552 961 L 551 962 L 543 962 L 542 961 L 541 962 L 541 1056 L 542 1057 L 543 1056 L 544 1057 L 546 1057 L 547 1056 L 568 1056 L 568 999 L 569 998 L 570 993 L 572 991 L 572 990 L 578 985 L 580 984 L 583 984 L 584 983 L 592 983 L 593 984 L 595 984 L 599 986 L 603 990 L 605 994 L 605 997 L 606 998 L 606 1056 L 634 1056 L 634 997 L 633 996 L 633 988 L 632 987 L 632 984 L 631 983 L 631 981 L 629 977 L 627 975 L 625 971 Z M 656 936 L 656 960 L 655 961 L 642 961 L 641 962 L 641 983 L 654 983 L 656 985 L 656 1032 L 657 1033 L 658 1040 L 660 1044 L 662 1046 L 662 1047 L 667 1052 L 677 1057 L 681 1057 L 682 1058 L 698 1058 L 699 1057 L 702 1057 L 703 1056 L 708 1055 L 711 1053 L 711 1048 L 710 1047 L 710 1043 L 709 1042 L 709 1038 L 708 1037 L 708 1033 L 707 1031 L 704 1033 L 702 1033 L 701 1034 L 698 1034 L 697 1035 L 695 1035 L 694 1034 L 691 1034 L 689 1033 L 685 1029 L 684 1027 L 684 1024 L 683 1023 L 683 985 L 685 983 L 707 983 L 707 962 L 706 961 L 684 961 L 683 960 L 683 932 L 681 933 L 675 933 L 674 934 L 669 934 L 668 935 L 661 935 L 660 936 Z M 503 519 L 504 524 L 508 528 L 510 528 L 513 530 L 515 530 L 516 531 L 518 531 L 522 533 L 525 533 L 527 535 L 527 544 L 532 554 L 539 560 L 543 562 L 545 562 L 546 563 L 560 563 L 563 561 L 565 561 L 567 559 L 568 559 L 574 553 L 577 547 L 577 545 L 578 544 L 588 544 L 589 543 L 591 543 L 595 539 L 595 537 L 596 536 L 596 528 L 595 527 L 589 527 L 588 526 L 579 526 L 578 525 L 571 525 L 570 524 L 565 524 L 564 523 L 559 523 L 558 522 L 549 521 L 548 520 L 545 520 L 544 519 L 541 519 L 540 518 L 537 518 L 536 517 L 529 516 L 525 514 L 522 514 L 516 511 L 511 510 L 508 508 L 506 510 L 506 512 L 504 515 L 504 518 Z M 750 518 L 749 517 L 749 515 L 748 514 L 748 512 L 746 509 L 743 509 L 740 511 L 738 511 L 737 512 L 735 512 L 731 514 L 728 514 L 724 516 L 721 516 L 717 518 L 714 518 L 713 519 L 710 519 L 709 520 L 706 520 L 705 521 L 701 521 L 700 522 L 696 522 L 695 523 L 690 523 L 689 524 L 684 524 L 683 525 L 676 525 L 675 526 L 666 526 L 665 527 L 658 527 L 657 528 L 657 536 L 659 540 L 662 543 L 664 543 L 665 544 L 673 544 L 675 543 L 676 544 L 677 549 L 680 553 L 680 554 L 687 560 L 691 562 L 693 562 L 694 563 L 699 563 L 700 564 L 702 564 L 703 563 L 708 563 L 716 559 L 722 553 L 725 547 L 725 545 L 726 544 L 726 538 L 727 537 L 726 535 L 729 533 L 731 533 L 732 532 L 734 532 L 735 531 L 737 531 L 738 530 L 740 530 L 741 529 L 743 529 L 745 528 L 749 524 L 750 522 Z M 1062 963 L 1061 964 L 1061 1056 L 1062 1057 L 1063 1056 L 1087 1056 L 1087 963 Z M 320 709 L 325 704 L 331 701 L 340 701 L 341 702 L 343 702 L 347 704 L 351 708 L 354 714 L 354 725 L 353 726 L 353 728 L 359 733 L 360 733 L 364 737 L 365 737 L 368 740 L 369 740 L 372 743 L 373 743 L 376 746 L 377 746 L 380 749 L 381 749 L 385 753 L 389 755 L 392 758 L 393 758 L 396 761 L 397 761 L 400 764 L 401 764 L 412 773 L 416 775 L 419 778 L 420 778 L 423 781 L 424 781 L 427 784 L 428 784 L 430 786 L 430 792 L 425 797 L 423 797 L 421 796 L 414 790 L 413 790 L 407 785 L 406 785 L 402 781 L 398 779 L 395 776 L 394 776 L 387 770 L 383 768 L 380 765 L 379 765 L 376 762 L 375 762 L 371 758 L 370 758 L 367 755 L 366 755 L 363 752 L 362 752 L 359 749 L 358 749 L 355 746 L 354 746 L 345 738 L 343 737 L 341 737 L 340 738 L 331 738 L 325 735 L 320 730 L 318 726 L 318 723 L 317 722 L 317 716 L 318 715 L 318 713 Z M 461 1024 L 462 1022 L 468 1016 L 470 1015 L 473 1015 L 474 1014 L 487 1014 L 488 1015 L 492 1015 L 493 1016 L 496 1016 L 498 1018 L 498 1025 L 495 1031 L 490 1036 L 486 1038 L 484 1038 L 483 1039 L 470 1039 L 466 1036 L 465 1036 L 463 1034 L 461 1030 Z M 984 1025 L 986 1021 L 990 1017 L 992 1016 L 994 1016 L 995 1015 L 1013 1015 L 1014 1016 L 1017 1016 L 1021 1019 L 1021 1023 L 1020 1024 L 1020 1027 L 1018 1031 L 1013 1036 L 1009 1038 L 1007 1038 L 1006 1039 L 994 1039 L 993 1038 L 991 1038 L 986 1034 L 985 1032 L 985 1030 L 984 1029 Z M 1071 923 L 1070 924 L 1068 924 L 1066 925 L 1060 932 L 1060 936 L 1059 937 L 1059 939 L 1060 940 L 1060 943 L 1062 947 L 1067 951 L 1069 951 L 1070 952 L 1079 952 L 1083 950 L 1087 946 L 1089 942 L 1089 935 L 1088 934 L 1088 932 L 1086 928 L 1084 926 L 1080 924 L 1078 924 L 1077 923 Z M 827 790 L 842 790 L 845 793 L 845 807 L 843 810 L 827 810 L 825 808 L 825 792 Z M 827 829 L 842 829 L 845 832 L 845 846 L 843 848 L 837 848 L 836 849 L 831 849 L 830 848 L 826 848 L 825 847 L 825 831 Z M 828 751 L 829 752 L 843 752 L 845 754 L 845 769 L 843 771 L 826 771 L 825 770 L 825 753 Z M 615 188 L 619 185 L 621 185 L 622 186 L 633 186 L 634 187 L 634 202 L 633 203 L 617 203 L 616 202 L 616 189 Z M 333 579 L 330 582 L 330 584 L 329 586 L 330 588 L 333 591 L 336 592 L 341 589 L 342 587 L 342 584 L 340 580 L 338 579 Z M 334 713 L 331 715 L 330 717 L 330 719 L 329 720 L 330 722 L 333 725 L 335 726 L 337 726 L 341 723 L 342 721 L 342 718 L 339 714 L 337 713 Z" fill="#10191F"/>
    <path d="M 742 922 L 741 923 L 741 945 L 742 946 L 803 946 L 804 947 L 804 948 L 803 949 L 803 950 L 801 952 L 801 953 L 798 956 L 798 957 L 796 959 L 796 960 L 794 962 L 794 963 L 791 966 L 791 967 L 789 969 L 789 970 L 786 973 L 786 974 L 784 976 L 784 977 L 782 979 L 782 980 L 779 983 L 779 984 L 777 986 L 777 987 L 775 989 L 775 990 L 772 993 L 772 994 L 770 996 L 770 997 L 764 1004 L 763 1007 L 760 1010 L 760 1011 L 758 1013 L 758 1014 L 755 1017 L 755 1018 L 753 1020 L 753 1021 L 750 1024 L 750 1025 L 748 1027 L 748 1028 L 745 1031 L 745 1032 L 741 1037 L 741 1056 L 742 1057 L 842 1057 L 843 1056 L 843 1032 L 780 1032 L 779 1031 L 779 1030 L 781 1028 L 781 1027 L 784 1024 L 784 1023 L 786 1021 L 786 1020 L 789 1017 L 789 1016 L 791 1014 L 791 1013 L 794 1010 L 794 1009 L 796 1007 L 796 1006 L 799 1003 L 799 1002 L 801 1000 L 801 999 L 804 996 L 804 995 L 806 993 L 806 992 L 809 989 L 809 988 L 811 986 L 811 985 L 813 983 L 813 982 L 815 980 L 815 979 L 818 976 L 818 975 L 820 973 L 820 972 L 822 970 L 822 969 L 828 962 L 828 961 L 830 959 L 830 958 L 832 956 L 832 955 L 835 952 L 835 951 L 837 949 L 837 948 L 840 945 L 840 944 L 842 942 L 842 922 Z M 327 569 L 324 572 L 323 572 L 322 573 L 322 574 L 320 576 L 320 577 L 319 578 L 319 580 L 318 581 L 318 589 L 319 590 L 319 591 L 320 592 L 321 595 L 326 600 L 327 600 L 330 602 L 335 602 L 336 603 L 337 603 L 338 602 L 341 602 L 342 603 L 343 606 L 345 608 L 346 611 L 348 613 L 349 616 L 351 618 L 352 621 L 354 623 L 354 624 L 359 629 L 360 629 L 363 632 L 364 632 L 367 635 L 368 635 L 375 641 L 376 641 L 378 643 L 379 643 L 383 647 L 384 647 L 391 653 L 392 653 L 394 655 L 395 655 L 398 658 L 399 658 L 402 661 L 403 661 L 407 665 L 407 666 L 406 667 L 406 674 L 407 675 L 407 704 L 406 705 L 406 708 L 408 710 L 409 710 L 411 712 L 412 712 L 416 716 L 417 716 L 418 717 L 418 659 L 413 654 L 412 654 L 410 652 L 409 652 L 406 649 L 405 649 L 398 643 L 397 643 L 395 641 L 394 641 L 391 638 L 390 638 L 387 635 L 386 635 L 383 632 L 382 632 L 379 629 L 378 629 L 375 626 L 374 626 L 371 623 L 370 623 L 367 620 L 366 620 L 361 615 L 361 614 L 359 612 L 359 611 L 358 610 L 357 607 L 355 605 L 355 604 L 354 603 L 353 600 L 351 598 L 351 597 L 350 596 L 353 591 L 353 588 L 354 587 L 354 584 L 353 583 L 353 580 L 352 579 L 352 578 L 351 577 L 350 574 L 346 570 L 345 570 L 342 568 L 339 568 L 338 567 L 333 567 L 332 568 L 329 568 L 328 569 Z M 321 709 L 321 710 L 319 713 L 319 715 L 318 716 L 318 722 L 319 723 L 319 726 L 320 727 L 321 730 L 325 734 L 326 734 L 331 737 L 340 737 L 341 736 L 343 736 L 344 737 L 345 737 L 354 745 L 355 745 L 358 748 L 359 748 L 362 751 L 363 751 L 366 754 L 367 754 L 370 757 L 371 757 L 375 761 L 376 761 L 383 767 L 384 767 L 386 769 L 387 769 L 390 772 L 391 772 L 398 778 L 399 778 L 401 780 L 402 780 L 406 784 L 407 784 L 410 787 L 411 787 L 413 789 L 414 789 L 421 795 L 422 795 L 423 796 L 425 796 L 429 792 L 429 786 L 428 785 L 427 785 L 424 782 L 423 782 L 416 776 L 415 776 L 413 774 L 412 774 L 409 771 L 408 771 L 405 768 L 404 768 L 401 765 L 400 765 L 397 762 L 396 762 L 389 756 L 388 756 L 386 754 L 385 754 L 381 750 L 380 750 L 377 747 L 376 747 L 373 744 L 372 744 L 369 741 L 368 741 L 365 738 L 364 738 L 360 734 L 359 734 L 352 728 L 352 726 L 353 725 L 353 714 L 352 713 L 352 711 L 350 709 L 350 708 L 347 705 L 346 705 L 343 703 L 341 703 L 340 702 L 331 702 L 330 703 L 328 703 L 326 705 L 325 705 Z M 827 791 L 826 792 L 826 808 L 827 809 L 843 809 L 843 808 L 844 807 L 844 793 L 842 791 Z M 827 830 L 826 831 L 826 847 L 830 847 L 831 848 L 836 848 L 837 847 L 843 847 L 844 846 L 844 832 L 842 830 Z M 826 753 L 826 770 L 843 770 L 844 769 L 844 754 L 843 753 L 829 753 L 828 752 L 827 753 Z M 616 188 L 617 189 L 617 202 L 633 202 L 633 187 L 622 187 L 621 186 L 619 186 Z M 333 578 L 338 578 L 339 579 L 340 579 L 342 581 L 342 583 L 343 584 L 343 587 L 342 588 L 342 589 L 340 591 L 339 591 L 336 593 L 333 592 L 329 588 L 329 587 L 328 586 L 328 585 L 329 584 L 329 582 Z M 334 712 L 337 712 L 338 713 L 339 713 L 342 716 L 342 717 L 343 718 L 343 721 L 342 722 L 342 723 L 339 726 L 338 726 L 337 727 L 335 727 L 334 726 L 333 726 L 329 722 L 329 721 L 328 720 L 329 719 L 329 717 L 330 716 L 330 715 L 332 713 L 333 713 Z" fill="#00AEEF"/>
  </g>
</svg>
